<?xml version="1.0" encoding="utf-8"?>
<!-- Generator: Adobe Illustrator 18.0.0, SVG Export Plug-In . SVG Version: 6.00 Build 0)  -->
<!DOCTYPE svg PUBLIC "-//W3C//DTD SVG 1.1//EN" "http://www.w3.org/Graphics/SVG/1.1/DTD/svg11.dtd">
<svg version="1.1" xmlns="http://www.w3.org/2000/svg" xmlns:xlink="http://www.w3.org/1999/xlink" x="0px" y="0px"
	 viewBox="0 0 191.6 55.3" enable-background="new 0 0 191.6 55.3" xml:space="preserve">
<g id="Layer_1">
	<g>
		<path fill="#4A6290" d="M1,27.6C1,10,10,1.8,23.8,1.8c7.3,0,11.2,1.1,14.1,2.3l0.5,10.2h-1.7l-1.3-8.1c-2.7-1.4-6.1-2.4-11.9-2.4
			C10.6,3.8,4,12.4,4,27.3c0,15.5,6.8,24.1,20.4,24.1c4.3,0,7.9-0.9,11.2-1.9V33.7l-7.1-0.6v-1.6h15.7v1.6l-5.8,0.6V51
			c-3.7,1.4-7.8,2.4-14.2,2.4C9.5,53.3,1,44.6,1,27.6z"/>
		<path fill="#4A6290" d="M48.2,34.5c0-12.3,7.8-19.1,16.5-19.1c8.6,0,16.5,6.4,16.5,18.8c0,12.4-7.8,19-16.5,19
			C56.1,53.2,48.2,46.9,48.2,34.5z M78.4,34.4c0-11.7-6.6-17-13.7-17c-7.1,0-13.7,5.3-13.7,16.8c0,11.6,6.6,16.9,13.7,16.9
			S78.4,45.9,78.4,34.4z"/>
		<path fill="#4A6290" d="M101.1,50.4l-0.4-9.8h1.7l1.1,7.9c2.8,1.4,6,2.7,11.2,2.7c10,0,13.6-4.5,13.6-10.8
			c0-6.6-2.7-9.3-11.2-12.2l-3.1-1.1c-7.4-2.4-12.2-6.1-12.2-13.2c0-6.6,4.1-12,15-12c5.2,0,8.6,1,11.7,2.2l0.4,8.9h-1.7l-1-7
			c-1.7-0.9-4.9-2.1-9.5-2.1c-8.7,0-12.2,3.6-12.2,9.6c0,5.3,2.5,8.4,10.4,11.1l3.1,1.1c8.4,2.9,13.1,6.1,13.1,14.3
			c0,7.3-4.5,13.2-16.2,13.2C109.4,53.3,104.4,51.9,101.1,50.4z"/>
		<path fill="#4A6290" d="M137.4,34.2c0-11.9,6.6-18.8,15.4-18.8c9.1,0,14.2,6.1,14.2,17.6h-26.9c-0.2,11.2,3.2,17.9,14.4,17.9
			c5.5,0,8.7-1.4,11.2-2.6v1.7c-2.3,1.4-5.9,3-11.7,3C141.2,53.1,137.4,44.8,137.4,34.2z M164.1,30.9c-0.2-9.2-4.2-13.6-11.4-13.6
			c-7.5,0-11.9,5.3-12.5,13.9L164.1,30.9z"/>
		<path fill="#4A6290" d="M175.7,45.1V18.1h-5.5v-1.4l5.6-0.7l0.5-8.8h1.9V16h10.5v2.2h-10.5v26.4c0,4.9,1.9,6.5,6.2,6.5
			c1.9,0,3.5-0.4,5.2-1v1.5c-1.5,0.9-3.8,1.6-6,1.6C178.9,53,175.7,50.9,175.7,45.1z"/>
	</g>
</g>
<g id="baseline">
</g>
</svg>
