<?xml version="1.0" encoding="utf-8"?>
<!-- Generator: Adobe Illustrator 20.1.0, SVG Export Plug-In . SVG Version: 6.00 Build 0)  -->
<svg version="1.1" id="Layer_1" xmlns="http://www.w3.org/2000/svg" xmlns:xlink="http://www.w3.org/1999/xlink" x="0px" y="0px"
	 viewBox="0 0 50 50" style="enable-background:new 0 0 50 50;" xml:space="preserve">
<style type="text/css">
	.st0{fill:#FFFFFF;}
	.st1{fill:#121212;}
</style>
<g>
	<path class="st0" d="M50,25c0,13.8-11.2,25-25,25S0,38.8,0,25S11.2,0,25,0S50,11.2,50,25"/>
</g>
<path class="st1" d="M29.2,7l8.2,10.8h0.8v-7.3c-1.6-1.6-5.4-3.8-9-4.3V7z"/>
<g>
	<path class="st1" d="M26.5,25.9v0.8l2.6,1v14.1v1.6v0.9c3.8-0.7,7.5-2.9,9-4.3V28l2.6-1.2v-0.9H26.5z"/>
</g>
<path class="st1" d="M17.7,25.1c-0.1,10.6,3.1,18.4,8.8,18.4c0,0,0,0,0.1,0v0.8c-8.5,0.7-20.2-5.8-20-19.2l0,0
	C6.4,11.7,18.1,5.2,26.5,5.8v0.8c0,0,0,0-0.1,0C20.8,6.6,17.6,14.5,17.7,25.1L17.7,25.1z"/>
</svg>
