<svg class='uit-icon' xmlns="http://www.w3.org/2000/svg" viewBox="0 0 50 50"><defs><style>.cls-1{fill:#333}</style></defs><title>IconLibrary</title><circle class="cls-1" cx="25" cy="25.71" r="3.07"/><path class="cls-1" d="M25.45 13.47h-1.13l-8.41 8.41V33L17 34.09h16l1.14-1.17v-11zm5.86 13.26L30 27a5.17 5.17 0 0 1-.57 1.37l.7 1.08a6.39 6.39 0 0 1-1.45 1.44l-1.09-.7a5.16 5.16 0 0 1-1.36.56L26 32a6.45 6.45 0 0 1-1 .08 6.61 6.61 0 0 1-1-.08l-.3-1.24a5.19 5.19 0 0 1-1.36-.56l-1.08.7a6.41 6.41 0 0 1-1.45-1.45l.7-1.09A5.2 5.2 0 0 1 20 27l-1.26-.27a6.38 6.38 0 0 1 0-2l1.26-.31a5.2 5.2 0 0 1 .56-1.35L19.81 22a6.41 6.41 0 0 1 1.45-1.45l1.09.7a5.18 5.18 0 0 1 1.36-.56L24 19.4a6.61 6.61 0 0 1 1-.08 6.45 6.45 0 0 1 1 .08l.27 1.26a5.16 5.16 0 0 1 1.36.56l1.09-.7A6.39 6.39 0 0 1 30.18 22l-.7 1.08a5.17 5.17 0 0 1 .52 1.34l1.26.27a6.39 6.39 0 0 1 .05 2.04z"/></svg>