<svg class='uit-icon' xmlns="http://www.w3.org/2000/svg" viewBox="0 0 50 50"><path d="M39 27.27a14.17 14.17 0 0 0 0-4.54l-2.81-.6a11.47 11.47 0 0 0-1.26-3l1.56-2.41a14.24 14.24 0 0 0-3.21-3.21L30.89 15a11.48 11.48 0 0 0-3-1.25L27.26 11a14.22 14.22 0 0 0-4.55 0l-.6 2.81a11.52 11.52 0 0 0-3 1.25L16.7 13.5a14.32 14.32 0 0 0-3.22 3.22l1.52 2.4a11.53 11.53 0 0 0-1.25 3l-2.81.6a14.17 14.17 0 0 0 0 4.55l2.81.6a11.54 11.54 0 0 0 1.25 3l-1.53 2.43a14.31 14.31 0 0 0 3.22 3.22L19.1 35a11.52 11.52 0 0 0 3 1.25l.61 2.75a14.22 14.22 0 0 0 4.55 0l.6-2.81a11.48 11.48 0 0 0 3-1.25l2.41 1.56a14.24 14.24 0 0 0 3.21-3.21L35 30.9a11.47 11.47 0 0 0 1.26-3zm-14 6.82A9.09 9.09 0 1 1 34.09 25 9.09 9.09 0 0 1 25 34.09z"/></svg>