<svg class='uit-icon' xmlns="http://www.w3.org/2000/svg" viewBox="0 0 50 50"><path d="M36 19.3v.7c0 7.5-5.7 16.2-16.2 16.2a15.36 15.36 0 0 1-8.7-2.6 6.15 6.15 0 0 0 1.4.1 11.69 11.69 0 0 0 7.1-2.4 5.58 5.58 0 0 1-5.3-4 3.75 3.75 0 0 0 1.1.1 7.72 7.72 0 0 0 1.5-.2 5.7 5.7 0 0 1-4.6-5.6v-.1a5.59 5.59 0 0 0 2.6.7 5.73 5.73 0 0 1-2.5-4.7 6 6 0 0 1 .8-2.9 16.11 16.11 0 0 0 11.7 5.9 5.7 5.7 0 0 1-.1-1.3 5.7 5.7 0 0 1 5.7-5.7 6 6 0 0 1 4.2 1.8 11.25 11.25 0 0 0 3.6-1.4 6 6 0 0 1-2.5 3.2 9.54 9.54 0 0 0 3.3-.9 15.15 15.15 0 0 1-3.1 3.1z"/></svg>